<svg width="17" height="17" viewBox="0 0 17 17" fill="none" xmlns="http://www.w3.org/2000/svg" [attr.height]="size" [attr.width]="size">
<g clip-path="url(#clip0)">
<path d="M10.108 9.61859C9.9249 9.81509 9.70409 9.9727 9.45876 10.082C9.21343 10.1913 8.9486 10.2501 8.68005 10.2548C8.41151 10.2596 8.14477 10.2102 7.89573 10.1096C7.6467 10.009 7.42048 9.85928 7.23056 9.66936C7.04064 9.47945 6.89092 9.25322 6.79033 9.00419C6.68974 8.75515 6.64035 8.48841 6.64508 8.21987C6.64982 7.95133 6.7086 7.68649 6.81791 7.44116C6.92722 7.19583 7.08483 6.97503 7.28133 6.79193M12.6547 12.1653C11.5151 13.0339 10.1274 13.5152 8.69466 13.5386C4.02799 13.5386 1.36133 8.20526 1.36133 8.20526C2.19059 6.65986 3.34075 5.30967 4.73466 4.24526L12.6547 12.1653ZM7.29466 3.03193C7.75355 2.92451 8.22337 2.87082 8.69466 2.87193C13.3613 2.87193 16.028 8.20526 16.028 8.20526C15.6233 8.96233 15.1407 9.67508 14.588 10.3319L7.29466 3.03193Z" stroke="#4B4A53" stroke-linecap="round" stroke-linejoin="round" [attr.stroke]="fillColor"/>
<path d="M1.36133 0.871927L16.028 15.5386" stroke="#4B4A53" stroke-linecap="round" stroke-linejoin="round" [attr.stroke]="fillColor"/>
</g>
<defs>
<clipPath id="clip0">
<rect width="16" height="16" fill="white" transform="translate(0.694824 0.205261)"/>
</clipPath>
</defs>
</svg>
