<svg width="16" height="17" viewBox="0 0 16 17" fill="none" xmlns="http://www.w3.org/2000/svg" [attr.height]="size" [attr.width]="size">
<path d="M13.7664 7.28359L8.12109 7.28359V9.60391L11.3461 9.60391C11.207 10.3539 10.7852 10.9883 10.1492 11.4133C9.61172 11.7727 8.92578 11.9852 8.11953 11.9852C6.55859 11.9852 5.23828 10.9305 4.76641 9.51328C4.64766 9.15391 4.57891 8.76953 4.57891 8.37422C4.57891 7.97891 4.64766 7.59453 4.76641 7.23516C5.23984 5.81953 6.56016 4.76484 8.12109 4.76484C9.00078 4.76484 9.78984 5.06797 10.4117 5.66172L12.1305 3.94141C11.0914 2.97266 9.73672 2.37891 8.12109 2.37891C5.77891 2.37891 3.75234 3.72266 2.76641 5.68203C2.36016 6.49141 2.12891 7.40703 2.12891 8.37578C2.12891 9.34453 2.36016 10.2586 2.76641 11.068C3.75234 13.0273 5.77891 14.3711 8.12109 14.3711C9.73984 14.3711 11.0961 13.8336 12.0867 12.918C13.2195 11.8742 13.8742 10.3367 13.8742 8.51016C13.8742 8.08516 13.8367 7.67734 13.7664 7.28359Z" fill="white" [attr.fill]="fillColor"/>
</svg>
