<svg width="36" height="36" viewBox="0 0 36 36" fill="none" xmlns="http://www.w3.org/2000/svg" [attr.height]="size" [attr.width]="size">
<g style="mix-blend-mode:luminosity">
<path fill-rule="evenodd" clip-rule="evenodd" d="M18 0.000976562C8.05887 0.000976562 0 8.05985 0 18.001C0 27.9421 8.05887 36.001 18 36.001C27.9411 36.001 36 27.9421 36 18.001C36 8.05985 27.9411 0.000976562 18 0.000976562ZM18.0009 7.50094C15.1493 7.50094 14.7914 7.51341 13.6714 7.56438C12.5536 7.61557 11.7906 7.79254 11.1229 8.0522C10.4323 8.32039 9.84649 8.67914 9.26286 9.263C8.67879 9.84663 8.32003 10.4324 8.05097 11.1228C7.79065 11.7907 7.61346 12.5539 7.56315 13.6713C7.51305 14.7913 7.49993 15.1494 7.49993 18.0011C7.49993 20.8528 7.51261 21.2095 7.56336 22.3296C7.61477 23.4474 7.79174 24.2104 8.05118 24.878C8.31959 25.5686 8.67835 26.1544 9.2622 26.7381C9.84562 27.3222 10.4314 27.6818 11.1216 27.95C11.7897 28.2096 12.5529 28.3866 13.6705 28.4378C14.7905 28.4888 15.1482 28.5012 17.9996 28.5012C20.8515 28.5012 21.2083 28.4888 22.3283 28.4378C23.4461 28.3866 24.21 28.2096 24.8781 27.95C25.5685 27.6818 26.1534 27.3222 26.7368 26.7381C27.3209 26.1544 27.6797 25.5686 27.9487 24.8782C28.2069 24.2104 28.3841 23.4472 28.4366 22.3298C28.4869 21.2098 28.5 20.8528 28.5 18.0011C28.5 15.1494 28.4869 14.7915 28.4366 13.6715C28.3841 12.5537 28.2069 11.7907 27.9487 11.1231C27.6797 10.4324 27.3209 9.84663 26.7368 9.263C26.1528 8.67893 25.5687 8.32017 24.8774 8.0522C24.2081 7.79254 23.4446 7.61557 22.3268 7.56438C21.2068 7.51341 20.8502 7.50094 17.9977 7.50094H18.0009ZM17.6508 9.39303H17.6511L18.001 9.39313C20.8046 9.39313 21.1369 9.4032 22.244 9.45351C23.2677 9.50032 23.8234 9.67139 24.1935 9.81511C24.6835 10.0054 25.0328 10.2329 25.4001 10.6004C25.7676 10.9679 25.9951 11.3179 26.1859 11.8079C26.3296 12.1776 26.5009 12.7333 26.5475 13.757C26.5978 14.8639 26.6087 15.1964 26.6087 17.9987C26.6087 20.8009 26.5978 21.1334 26.5475 22.2403C26.5007 23.264 26.3296 23.8197 26.1859 24.1894C25.9956 24.6794 25.7676 25.0283 25.4001 25.3956C25.0326 25.7631 24.6837 25.9906 24.1935 26.1809C23.8238 26.3253 23.2677 26.4959 22.244 26.5427C21.1371 26.593 20.8046 26.604 18.001 26.604C15.1973 26.604 14.865 26.593 13.7581 26.5427C12.7343 26.4955 12.1787 26.3244 11.8084 26.1807C11.3183 25.9904 10.9683 25.7629 10.6008 25.3954C10.2333 25.0279 10.0058 24.6787 9.81507 24.1885C9.67135 23.8188 9.50007 23.2632 9.45348 22.2394C9.40316 21.1325 9.3931 20.8 9.3931 17.996C9.3931 15.1921 9.40316 14.8613 9.45348 13.7544C9.50029 12.7306 9.67135 12.175 9.81507 11.8049C10.0054 11.3149 10.2333 10.9649 10.6008 10.5974C10.9683 10.2299 11.3183 10.0024 11.8084 9.81161C12.1785 9.66723 12.7343 9.4966 13.7581 9.44957C14.7267 9.40582 15.1021 9.3927 17.0591 9.39051V9.39313C17.2416 9.39285 17.438 9.39294 17.6499 9.39303H17.6508ZM22.3458 12.3962C22.3458 11.7003 22.9102 11.1366 23.6058 11.1366V11.1362C24.3015 11.1362 24.8658 11.7006 24.8658 12.3962C24.8658 13.0918 24.3015 13.6562 23.6058 13.6562C22.9102 13.6562 22.3458 13.0918 22.3458 12.3962ZM12.6088 18.0011C12.6088 15.0232 15.0232 12.6088 18.001 12.6088C20.9788 12.609 23.3924 15.0233 23.3924 18.0011C23.3924 20.979 20.9789 23.3923 18.001 23.3923C15.0232 23.3923 12.6088 20.979 12.6088 18.0011ZM21.501 18.0011C21.501 16.0679 19.9339 14.501 18.001 14.501C16.0679 14.501 14.5009 16.0679 14.5009 18.0011C14.5009 19.934 16.0679 21.5011 18.001 21.5011C19.9339 21.5011 21.501 19.934 21.501 18.0011Z" fill="#AAAAAA" [attr.fill]="fillColor"/>
</g>
</svg>
