<svg width="75" height="34" viewBox="0 0 75 34" fill="none" xmlns="http://www.w3.org/2000/svg">
<path fill-rule="evenodd" clip-rule="evenodd" d="M75 0H0V33.6898H75V0ZM61.7416 4.8161V9.19983H57.9345V14.6318H61.7418V19.0223H57.9345V24.537H61.7418V28.8617H53.7209V7.06614L50.3409 28.8616L45.3945 28.877C45.3945 28.877 42.8716 13.4417 42.8667 13.408V13.4096C43.2745 15.9029 41.7422 18.5092 40.385 19.5355L43.0631 28.8616H43.058H43.0507L43.0523 28.8667H43.0475H38.8983H38.8933L36.8526 20.9095L35.8668 21.0563V28.8616H35.8618H35.8568V28.8667H35.8503L27.8095 28.8616L27.3141 25.1616H24.0167L23.5197 28.8616H15.3295V17.2719L13.4242 28.8616H11.1656L9.23306 17.2719V28.8619H4.98466V4.81617H10.3796L12.2734 17.2397L14.2177 4.81603H19.6108L19.6092 26.9307L22.8536 4.81283L28.4887 4.81617L31.6249 26.1626L31.6414 4.81617C31.6414 4.81617 35.9245 4.81446 35.95 4.81617C39.8268 4.81617 41.5884 7.72289 42.0854 8.72398L41.6034 4.81617H45.9061L47.8478 19.4613L49.8101 4.8161H61.7416ZM25.6836 11.0685L24.5171 21.3485H26.8947L25.6836 11.0685ZM35.8666 16.8449C36.1985 16.8449 36.5394 16.7639 36.8664 16.6018C37.857 16.1106 38.7006 14.8833 38.7006 12.9354C38.7006 9.21172 36.22 9.10711 35.8873 9.10882C35.8828 9.10882 35.8788 9.10928 35.8752 9.1097C35.8721 9.11006 35.8693 9.11038 35.8666 9.11038V16.8449ZM70.3017 28.8583V24.5337H66.69V4.81283H62.4771V28.8583H70.3017Z" fill="#DC042B"/>
</svg>
