<svg width="62" height="45" viewBox="0 0 62 45" fill="none" xmlns="http://www.w3.org/2000/svg">
<path d="M6.02729 38.7792C5.80145 39.2967 5.54739 39.7484 5.26509 40.1342C4.99221 40.5106 4.70051 40.8305 4.38998 41.094C4.08887 41.348 3.78305 41.5362 3.47253 41.6586C3.162 41.7809 2.86089 41.8421 2.56918 41.8421C2.27748 41.8421 2.0093 41.7762 1.76465 41.6445C1.5294 41.5127 1.32239 41.3151 1.1436 41.0516C0.964813 40.7882 0.818961 40.4635 0.706043 40.0777C0.602535 39.6919 0.550781 39.2403 0.550781 38.7227C0.550781 37.8382 0.673109 36.9678 0.917764 36.1115C1.16242 35.2458 1.50588 34.4695 1.94814 33.7826C2.3904 33.0956 2.91264 32.5452 3.51487 32.1311C4.12651 31.7077 4.79931 31.496 5.53327 31.496C5.75911 31.496 5.97553 31.543 6.18255 31.6371C6.38957 31.7312 6.56835 31.863 6.71891 32.0323C6.86947 32.2017 6.98709 32.4087 7.07178 32.6534C7.16587 32.898 7.21292 33.1709 7.21292 33.472C7.21292 33.5285 7.21292 33.5897 7.21292 33.6555C7.21292 33.712 7.20822 33.7732 7.19881 33.839L5.34978 34.333C5.23686 34.0978 5.10513 33.9802 4.95457 33.9802C4.80401 33.9802 4.64405 34.0696 4.47467 34.2483C4.3147 34.4177 4.15474 34.6436 3.99477 34.9259C3.8348 35.1987 3.67954 35.5093 3.52898 35.8574C3.37843 36.1962 3.24669 36.5396 3.13377 36.8878C3.02086 37.236 2.92676 37.57 2.85148 37.8899C2.78561 38.2005 2.75268 38.4545 2.75268 38.6521C2.75268 38.9533 2.79032 39.165 2.86559 39.2873C2.95028 39.4096 3.05849 39.4708 3.19023 39.4708C3.29374 39.4708 3.41136 39.4332 3.5431 39.3579C3.67484 39.2732 3.79716 39.1697 3.91008 39.0473C4.023 38.9156 4.12651 38.7698 4.22061 38.6098C4.3147 38.4498 4.38057 38.2899 4.41821 38.1299L6.02729 38.7792Z" fill="white"/>
<path d="M13.7489 34.1778C13.7489 34.9494 13.6642 35.6786 13.4949 36.3656C13.3349 37.0431 13.1185 37.6688 12.8456 38.2428C12.5727 38.8074 12.2528 39.3155 11.8858 39.7672C11.5282 40.2095 11.1518 40.5906 10.7566 40.9105C10.3614 41.221 9.96147 41.461 9.55685 41.6303C9.15223 41.7903 8.76642 41.8703 8.39944 41.8703C8.08892 41.8703 7.80662 41.8138 7.55256 41.7009C7.29849 41.5786 7.07736 41.4045 6.88917 41.1787C6.70097 40.9434 6.55041 40.647 6.4375 40.2894C6.33399 39.9225 6.28224 39.4849 6.28224 38.9768C6.28224 38.4498 6.3481 37.8946 6.47984 37.3112C6.61158 36.7278 6.79036 36.1491 7.0162 35.5751C7.24204 35.0011 7.51962 34.4554 7.84897 33.9378C8.17831 33.4203 8.54059 32.9639 8.9358 32.5687C9.33101 32.1641 9.75445 31.8441 10.2061 31.6089C10.6578 31.3737 11.1283 31.256 11.6176 31.256C12.041 31.256 12.3892 31.3454 12.6621 31.5242C12.9444 31.6936 13.1608 31.9194 13.3114 32.2017C13.4713 32.4746 13.5842 32.7851 13.6501 33.1333C13.716 33.4814 13.7489 33.8296 13.7489 34.1778ZM8.38533 38.6098C8.38533 38.7133 8.40415 38.8215 8.44179 38.9344C8.47942 39.0473 8.53118 39.1462 8.59705 39.2308C8.66292 39.3155 8.7429 39.3908 8.837 39.4567C8.94051 39.5131 9.04872 39.5414 9.16164 39.5414C9.58508 39.5414 9.96147 39.3955 10.2908 39.1038C10.6202 38.8121 10.893 38.4545 11.1095 38.0311C11.3259 37.6076 11.4906 37.156 11.6035 36.6761C11.7258 36.1962 11.787 35.7586 11.787 35.3634C11.787 35.2505 11.7776 35.1282 11.7587 34.9964C11.7493 34.8647 11.7211 34.7424 11.6741 34.6294C11.6364 34.5165 11.5705 34.4224 11.4764 34.3472C11.3918 34.2625 11.2741 34.2201 11.1236 34.2201C10.8225 34.2201 10.5449 34.2954 10.2908 34.446C10.0367 34.5965 9.80621 34.7988 9.59919 35.0529C9.40159 35.2975 9.2275 35.5798 9.07695 35.8998C8.92639 36.2103 8.79465 36.5302 8.68174 36.8596C8.57823 37.1795 8.50295 37.4947 8.4559 37.8053C8.40885 38.1158 8.38533 38.384 8.38533 38.6098Z" fill="white"/>
<path d="M12.3821 41.7291C12.7961 40.4776 13.1913 39.2497 13.5677 38.0452C13.7277 37.5371 13.8924 37.0054 14.0618 36.4502C14.2311 35.8951 14.4005 35.3446 14.5699 34.7988C14.7393 34.2531 14.8945 33.7261 15.0357 33.218C15.1862 32.7098 15.318 32.2394 15.4309 31.8065C15.9484 31.8065 16.4377 31.7783 16.8988 31.7218C17.3599 31.6654 17.8586 31.6136 18.395 31.5666C18.3667 31.7736 18.3338 32.0088 18.2962 32.2723C18.2679 32.5264 18.2303 32.7945 18.1833 33.0768C18.1456 33.3591 18.1033 33.6508 18.0562 33.9519C18.0092 34.2531 17.9527 34.6389 17.8868 35.1093C17.821 35.5798 17.7316 36.1679 17.6187 36.8737H17.8022C18.075 36.1585 18.3009 35.5657 18.4797 35.0952C18.6584 34.6153 18.8043 34.2248 18.9172 33.9237C19.0301 33.6226 19.1431 33.3309 19.256 33.0486C19.3783 32.7569 19.4912 32.484 19.5947 32.2299C19.7076 31.9665 19.8111 31.7359 19.9052 31.5383C20.1405 31.5195 20.3616 31.496 20.5686 31.4678C20.7757 31.4395 20.9827 31.4113 21.1897 31.3831C21.3967 31.3454 21.6037 31.3125 21.8107 31.2843C22.0272 31.2466 22.2624 31.2043 22.5165 31.1572C22.4224 31.703 22.333 32.2629 22.2483 32.8369C22.1636 33.4109 22.0883 33.9849 22.0225 34.5589C21.9566 35.1235 21.8907 35.6833 21.8248 36.2385C21.7684 36.7937 21.7166 37.3207 21.6696 37.8194C21.5567 38.9862 21.4579 40.1248 21.3732 41.2351L18.9172 41.6727C18.9172 41.6256 18.9219 41.4986 18.9313 41.2916C18.9501 41.0846 18.969 40.8305 18.9878 40.5294C19.016 40.2283 19.049 39.8942 19.0866 39.5273C19.1336 39.1603 19.176 38.7933 19.2136 38.4263C19.2607 38.0593 19.3077 37.7065 19.3548 37.3677C19.4018 37.0195 19.4489 36.7231 19.4959 36.4785H19.3689C19.2371 36.8737 19.0913 37.2924 18.9313 37.7347C18.7714 38.1675 18.6067 38.6098 18.4373 39.0615C18.2773 39.5131 18.1174 39.9554 17.9574 40.3882C17.7974 40.8211 17.6563 41.2351 17.534 41.6303C17.2046 41.6398 16.9223 41.6539 16.6871 41.6727C16.4518 41.6821 16.179 41.6962 15.8684 41.715L16.3201 36.4785H16.1084C16.0896 36.6008 16.0425 36.8078 15.9672 37.0995C15.892 37.3818 15.8026 37.7112 15.6991 38.0875C15.605 38.4545 15.5015 38.8403 15.3885 39.245C15.2756 39.6402 15.1674 40.0119 15.0639 40.36C14.9698 40.6988 14.8898 40.9811 14.8239 41.2069C14.7581 41.4233 14.7204 41.5457 14.711 41.5739L12.3821 41.7291Z" fill="white"/>
<path d="M23.944 41.5315C23.8593 41.5315 23.69 41.5457 23.4359 41.5739C23.1913 41.5927 22.9372 41.6209 22.6737 41.6586C22.4102 41.6868 22.1703 41.715 21.9539 41.7433C21.7468 41.7715 21.6339 41.7903 21.6151 41.7997C21.7092 41.3951 21.8033 40.9481 21.8974 40.4588C22.0009 39.9601 22.1044 39.4426 22.2079 38.9062C22.3114 38.3604 22.4102 37.81 22.5043 37.2548C22.5984 36.6996 22.6878 36.1632 22.7725 35.6457C22.9701 34.4412 23.1677 33.2039 23.3653 31.9335L25.5672 31.5807C25.3508 32.8416 25.1391 34.079 24.9321 35.2928C24.8474 35.8104 24.758 36.3467 24.6639 36.9019C24.5792 37.4571 24.4898 38.0076 24.3957 38.5533C24.311 39.0991 24.231 39.6308 24.1558 40.1483C24.0805 40.6564 24.0099 41.1175 23.944 41.5315Z" fill="white"/>
<path d="M30.4248 38.7792C30.1989 39.2967 29.9449 39.7484 29.6626 40.1342C29.3897 40.5106 29.098 40.8305 28.7875 41.094C28.4864 41.348 28.1805 41.5362 27.87 41.6586C27.5595 41.7809 27.2584 41.8421 26.9667 41.8421C26.675 41.8421 26.4068 41.7762 26.1621 41.6445C25.9269 41.5127 25.7199 41.3151 25.5411 41.0516C25.3623 40.7882 25.2165 40.4635 25.1035 40.0777C25 39.6919 24.9483 39.2403 24.9483 38.7227C24.9483 37.8382 25.0706 36.9678 25.3153 36.1115C25.5599 35.2458 25.9034 34.4695 26.3456 33.7826C26.7879 33.0956 27.3101 32.5452 27.9124 32.1311C28.524 31.7077 29.1968 31.496 29.9308 31.496C30.1566 31.496 30.373 31.543 30.58 31.6371C30.7871 31.7312 30.9658 31.863 31.1164 32.0323C31.267 32.2017 31.3846 32.4087 31.4693 32.6534C31.5634 32.898 31.6104 33.1709 31.6104 33.472C31.6104 33.5285 31.6104 33.5897 31.6104 33.6555C31.6104 33.712 31.6057 33.7732 31.5963 33.839L29.7473 34.333C29.6344 34.0978 29.5026 33.9802 29.3521 33.9802C29.2015 33.9802 29.0415 34.0696 28.8722 34.2483C28.7122 34.4177 28.5522 34.6436 28.3923 34.9259C28.2323 35.1987 28.077 35.5093 27.9265 35.8574C27.7759 36.1962 27.6442 36.5396 27.5313 36.8878C27.4183 37.236 27.3243 37.57 27.249 37.8899C27.1831 38.2005 27.1502 38.4545 27.1502 38.6521C27.1502 38.9533 27.1878 39.165 27.2631 39.2873C27.3478 39.4096 27.456 39.4708 27.5877 39.4708C27.6912 39.4708 27.8089 39.4332 27.9406 39.3579C28.0723 39.2732 28.1947 39.1697 28.3076 39.0473C28.4205 38.9156 28.524 38.7698 28.6181 38.6098C28.7122 38.4498 28.7781 38.2899 28.8157 38.1299L30.4248 38.7792Z" fill="white"/>
<path d="M39.2518 38.3275C39.2518 38.8544 39.1483 39.3343 38.9412 39.7672C38.7436 40.1906 38.4708 40.5576 38.1226 40.8681C37.7838 41.1787 37.3792 41.4186 36.9087 41.588C36.4476 41.7574 35.9489 41.8421 35.4126 41.8421C35.0362 41.8421 34.6598 41.7433 34.2834 41.5457C33.907 41.3386 33.5447 41.014 33.1966 40.5717L34.241 38.5251C34.3069 38.6474 34.4057 38.7745 34.5375 38.9062C34.6692 39.0285 34.815 39.1367 34.975 39.2308C35.1444 39.3249 35.3091 39.4049 35.469 39.4708C35.6384 39.5272 35.789 39.5555 35.9207 39.5555C36.0336 39.5555 36.1512 39.5367 36.2736 39.499C36.3959 39.4614 36.5088 39.4049 36.6123 39.3296C36.7158 39.2544 36.7958 39.1697 36.8523 39.0756C36.9181 38.9721 36.9511 38.8544 36.9511 38.7227C36.9511 38.4969 36.8758 38.2899 36.7252 38.1017C36.5841 37.9041 36.4053 37.7206 36.1889 37.5512C35.9724 37.3724 35.7372 37.1936 35.4831 37.0148C35.2291 36.836 34.9938 36.6478 34.7774 36.4502C34.5704 36.2526 34.3916 36.0315 34.241 35.7869C34.0905 35.5422 34.0152 35.2693 34.0152 34.9682C34.0152 34.4789 34.1611 34.0225 34.4528 33.5991C34.7445 33.1756 35.1067 32.8134 35.5396 32.5122C35.9819 32.2017 36.4618 31.9571 36.9793 31.7783C37.4968 31.5995 37.9861 31.5101 38.4472 31.5101C38.7013 31.5101 38.9412 31.543 39.1671 31.6089C39.3929 31.6654 39.5858 31.7642 39.7458 31.9053C39.9152 32.037 40.0469 32.2064 40.141 32.4134C40.2445 32.6205 40.2963 32.8792 40.2963 33.1897C40.2963 33.3215 40.2821 33.4532 40.2539 33.585C40.2351 33.7167 40.2163 33.8578 40.1975 34.0084L38.1508 34.6012C38.1696 34.5259 38.1838 34.4507 38.1932 34.3754C38.212 34.3001 38.2214 34.2248 38.2214 34.1495C38.2214 33.8673 38.1696 33.6649 38.0661 33.5426C37.972 33.4109 37.845 33.345 37.685 33.345C37.6098 33.345 37.5157 33.3732 37.4027 33.4297C37.2992 33.4862 37.191 33.5614 37.0781 33.6555C36.9746 33.7402 36.8852 33.8437 36.8099 33.9661C36.7346 34.0884 36.697 34.2201 36.697 34.3613C36.697 34.5871 36.7582 34.7753 36.8805 34.9259C37.0122 35.0764 37.1722 35.2176 37.3604 35.3493C37.5486 35.481 37.7509 35.6175 37.9673 35.7586C38.1932 35.8904 38.4002 36.0644 38.5884 36.2809C38.7766 36.4973 38.9318 36.7702 39.0542 37.0995C39.1859 37.4195 39.2518 37.8288 39.2518 38.3275Z" fill="white"/>
<path d="M44.2581 41.5315C44.0228 41.5692 43.7641 41.6115 43.4818 41.6586C43.1995 41.7056 42.9454 41.748 42.7196 41.7856C42.7572 41.4751 42.7949 41.1693 42.8325 40.8681C42.8607 40.6047 42.8842 40.3412 42.9031 40.0777C42.9313 39.8142 42.9548 39.5884 42.9736 39.4002H41.7457L41.1811 41.4327C40.9741 41.461 40.7294 41.4939 40.4471 41.5315C40.1648 41.5598 39.9013 41.588 39.6567 41.6162C39.3556 41.6539 39.0592 41.6915 38.7675 41.7291C39.1438 40.4776 39.5155 39.245 39.8825 38.0311C40.0331 37.523 40.1883 36.9913 40.3483 36.4361C40.5177 35.8809 40.6824 35.3305 40.8423 34.7847C41.0117 34.2295 41.1717 33.6979 41.3222 33.1897C41.4728 32.6816 41.6045 32.2158 41.7174 31.7924C42.3573 31.7453 43.0066 31.6889 43.6653 31.623C44.3334 31.5571 44.9826 31.4678 45.6131 31.3548C45.5849 31.6559 45.5519 32.0323 45.5143 32.484C45.4861 32.9263 45.4578 33.4109 45.4296 33.9378C45.4014 34.4648 45.3731 35.0152 45.3449 35.5892C45.3167 36.1632 45.2884 36.7278 45.2602 37.283C45.2132 38.5816 45.1614 39.9601 45.105 41.4186C44.8227 41.4657 44.5404 41.5033 44.2581 41.5315ZM42.0844 37.9887C42.1221 37.9887 42.1879 37.9887 42.282 37.9887C42.3855 37.9793 42.489 37.9746 42.5925 37.9746C42.7055 37.9652 42.809 37.9605 42.9031 37.9605C42.9972 37.9511 43.063 37.9417 43.1007 37.9323C43.1007 37.8758 43.1054 37.7817 43.1148 37.65C43.1336 37.5088 43.1477 37.3536 43.1571 37.1842C43.1759 37.0054 43.1948 36.8125 43.2136 36.6055C43.2324 36.3985 43.2512 36.1962 43.2701 35.9986C43.3077 35.5187 43.3547 35.0011 43.4112 34.446L43.4959 33.218L43.2842 33.2321L42.9595 34.446L42.0844 37.9887Z" fill="white"/>
<path d="M49.0658 41.3622C48.7741 41.3622 48.4636 41.3716 48.1342 41.3904C47.8143 41.4092 47.4896 41.4374 47.1603 41.4751C46.831 41.5127 46.5063 41.5645 46.1864 41.6303C45.8759 41.6868 45.5936 41.7574 45.3395 41.8421C45.396 41.4186 45.4618 40.9481 45.5371 40.4306C45.6124 39.9131 45.6971 39.3767 45.7912 38.8215C45.8947 38.2663 45.9935 37.7065 46.0876 37.1419C46.1911 36.5773 46.2946 36.0362 46.3981 35.5187C46.6334 34.286 46.8827 33.0298 47.1462 31.75L49.6163 31.4254C49.3622 32.5169 49.1175 33.5803 48.8823 34.6153C48.7788 35.0576 48.6753 35.5187 48.5718 35.9986C48.4683 36.4691 48.3695 36.9301 48.2754 37.3818C48.1813 37.8335 48.0966 38.271 48.0213 38.6945C47.946 39.1179 47.8849 39.4943 47.8378 39.8237C48.0731 39.8048 48.3224 39.7954 48.5859 39.7954C48.8588 39.786 49.0987 39.7813 49.3057 39.7813C49.3151 39.9601 49.3293 40.1389 49.3481 40.3177C49.3669 40.4871 49.3857 40.6423 49.4045 40.7835C49.4328 40.9246 49.4516 41.0516 49.461 41.1646C49.4798 41.2681 49.4939 41.3386 49.5033 41.3763C49.4281 41.3763 49.3528 41.3763 49.2775 41.3763C49.2116 41.3669 49.1411 41.3622 49.0658 41.3622Z" fill="white"/>
<path d="M49.5423 41.8279L51.3913 31.7924L55.8515 31.4113C55.7857 31.6183 55.7292 31.83 55.6822 32.0465C55.6351 32.2252 55.5881 32.4134 55.541 32.611C55.5034 32.7992 55.4704 32.9686 55.4422 33.1192C55.3481 33.1286 55.2117 33.138 55.0329 33.1474C54.8635 33.1474 54.68 33.1521 54.4824 33.1615C54.2848 33.1615 54.0825 33.1615 53.8755 33.1615C53.6779 33.1615 53.5038 33.1615 53.3532 33.1615L52.8592 35.688C53.1509 35.6692 53.4238 35.6551 53.6779 35.6457C53.8849 35.6363 54.0966 35.6316 54.313 35.6316C54.5295 35.6316 54.6894 35.6269 54.7929 35.6175C54.7553 35.8809 54.7177 36.1397 54.68 36.3938C54.6518 36.6478 54.6142 36.9066 54.5671 37.1701C54.473 37.1795 54.3177 37.1889 54.1013 37.1983C53.8943 37.1983 53.6826 37.203 53.4662 37.2124C53.2215 37.2218 52.9533 37.2313 52.6616 37.2407L52.1817 39.8378L54.2425 39.5131L54.1013 41.1222L49.5423 41.8279Z" fill="white"/>
<path d="M60.4927 38.3275C60.4927 38.8544 60.3892 39.3343 60.1822 39.7672C59.9846 40.1906 59.7117 40.5576 59.3636 40.8681C59.0248 41.1787 58.6202 41.4186 58.1497 41.588C57.6886 41.7574 57.1899 41.8421 56.6535 41.8421C56.2772 41.8421 55.9008 41.7433 55.5244 41.5457C55.148 41.3386 54.7857 41.014 54.4375 40.5717L55.482 38.5251C55.5479 38.6474 55.6467 38.7745 55.7784 38.9062C55.9102 39.0285 56.056 39.1367 56.216 39.2308C56.3854 39.3249 56.55 39.4049 56.71 39.4708C56.8794 39.5272 57.0299 39.5555 57.1617 39.5555C57.2746 39.5555 57.3922 39.5367 57.5145 39.499C57.6369 39.4614 57.7498 39.4049 57.8533 39.3296C57.9568 39.2544 58.0368 39.1697 58.0933 39.0756C58.1591 38.9721 58.1921 38.8544 58.1921 38.7227C58.1921 38.4969 58.1168 38.2899 57.9662 38.1017C57.8251 37.9041 57.6463 37.7206 57.4299 37.5512C57.2134 37.3724 56.9782 37.1936 56.7241 37.0148C56.4701 36.836 56.2348 36.6478 56.0184 36.4502C55.8114 36.2526 55.6326 36.0315 55.482 35.7869C55.3315 35.5422 55.2562 35.2693 55.2562 34.9682C55.2562 34.4789 55.402 34.0225 55.6937 33.5991C55.9855 33.1756 56.3477 32.8134 56.7806 32.5122C57.2228 32.2017 57.7027 31.9571 58.2203 31.7783C58.7378 31.5995 59.2271 31.5101 59.6882 31.5101C59.9423 31.5101 60.1822 31.543 60.4081 31.6089C60.6339 31.6654 60.8268 31.7642 60.9868 31.9053C61.1561 32.037 61.2879 32.2064 61.382 32.4134C61.4855 32.6205 61.5372 32.8792 61.5372 33.1897C61.5372 33.3215 61.5231 33.4532 61.4949 33.585C61.4761 33.7167 61.4573 33.8578 61.4384 34.0084L59.3918 34.6012C59.4106 34.5259 59.4247 34.4507 59.4341 34.3754C59.453 34.3001 59.4624 34.2248 59.4624 34.1495C59.4624 33.8673 59.4106 33.6649 59.3071 33.5426C59.213 33.4109 59.086 33.345 58.926 33.345C58.8507 33.345 58.7566 33.3732 58.6437 33.4297C58.5402 33.4862 58.432 33.5614 58.3191 33.6555C58.2156 33.7402 58.1262 33.8437 58.0509 33.9661C57.9756 34.0884 57.938 34.2201 57.938 34.3613C57.938 34.5871 57.9992 34.7753 58.1215 34.9259C58.2532 35.0764 58.4132 35.2176 58.6014 35.3493C58.7896 35.481 58.9919 35.6175 59.2083 35.7586C59.4341 35.8904 59.6412 36.0644 59.8294 36.2809C60.0176 36.4973 60.1728 36.7702 60.2951 37.0995C60.4269 37.4195 60.4927 37.8288 60.4927 38.3275Z" fill="white"/>
<path fill-rule="evenodd" clip-rule="evenodd" d="M62 0H0V27.8503H62V0ZM51.0398 3.98131V7.60519H47.8925V12.0957H51.04V15.7251H47.8925V20.2839H51.04V23.859H44.4093V5.84134L41.6152 23.8589L37.5261 23.8716C37.5261 23.8716 35.4406 11.1118 35.4365 11.084V11.0853C35.7737 13.1464 34.5069 15.3009 33.385 16.1493L35.5989 23.8589H35.5947H35.5886L35.59 23.8631H35.586H32.156H32.1519L30.4648 17.2852L29.65 17.4066V23.8589H29.6458H29.6417V23.8631H29.6363L22.9892 23.8589L22.5798 20.8003H19.8539L19.443 23.8589H12.6725V14.2781L11.0974 23.8589H9.23026L7.63272 14.2781V23.8592H4.12071V3.98137H8.58052L10.1461 14.2515L11.7533 3.98125H16.2117L16.2103 22.2627L18.8924 3.9786L23.5507 3.98137L26.1433 21.6278L26.1569 3.98137C26.1569 3.98137 29.6976 3.97996 29.7187 3.98137C32.9235 3.98137 34.3798 6.38425 34.7906 7.21182L34.3922 3.98137H37.9491L39.5543 16.088L41.1764 3.98131H51.0398ZM21.2318 9.14998L20.2676 17.6481H22.233L21.2318 9.14998ZM29.6498 13.9252C29.9241 13.9252 30.206 13.8582 30.4762 13.7241C31.2952 13.3181 31.9926 12.3035 31.9926 10.6933C31.9926 7.61502 29.9419 7.52854 29.6669 7.52996C29.6632 7.52996 29.6599 7.53034 29.6568 7.53069C29.6543 7.53098 29.652 7.53125 29.6498 7.53125V13.9252ZM58.1161 23.8562V20.2812H55.1305V3.9786H51.6478V23.8562H58.1161Z" fill="#DC042B"/>
</svg>
