<svg width="76" height="55" viewBox="0 0 76 55" fill="none" xmlns="http://www.w3.org/2000/svg">
<path d="M7.79082 47.5375C7.51763 48.1635 7.2103 48.7099 6.86881 49.1766C6.53871 49.6319 6.18584 50.0189 5.81021 50.3377C5.44596 50.645 5.07602 50.8726 4.70038 51.0206C4.32475 51.1686 3.9605 51.2426 3.60763 51.2426C3.25477 51.2426 2.93035 51.1629 2.6344 51.0035C2.34983 50.8442 2.09941 50.6051 1.88313 50.2864C1.66686 49.9677 1.49043 49.575 1.35383 49.1083C1.22862 48.6416 1.16602 48.0952 1.16602 47.4692C1.16602 46.3992 1.31399 45.3463 1.60995 44.3104C1.9059 43.2632 2.32137 42.3241 2.85637 41.4932C3.39136 40.6622 4.02311 39.9964 4.75161 39.4955C5.49149 38.9833 6.30536 38.7272 7.19322 38.7272C7.46641 38.7272 7.72822 38.7841 7.97864 38.8979C8.22906 39.0117 8.44534 39.1711 8.62746 39.376C8.80959 39.5809 8.95187 39.8313 9.05432 40.1273C9.16815 40.4232 9.22506 40.7533 9.22506 41.1176C9.22506 41.1859 9.22506 41.2598 9.22506 41.3395C9.22506 41.4078 9.21937 41.4818 9.20799 41.5615L6.97126 42.1591C6.83466 41.8745 6.67531 41.7322 6.49318 41.7322C6.31105 41.7322 6.11755 41.8404 5.91266 42.0566C5.71915 42.2615 5.52564 42.5347 5.33213 42.8762C5.13862 43.2063 4.95081 43.5819 4.76868 44.0031C4.58656 44.4129 4.4272 44.8284 4.2906 45.2495C4.15401 45.6707 4.04018 46.0748 3.94912 46.4618C3.86944 46.8374 3.8296 47.1448 3.8296 47.3838C3.8296 47.7481 3.87513 48.0042 3.96619 48.1521C4.06864 48.3001 4.19954 48.3741 4.3589 48.3741C4.48411 48.3741 4.6264 48.3286 4.78576 48.2375C4.94512 48.1351 5.09309 48.0099 5.22969 47.8619C5.36628 47.7025 5.49149 47.5261 5.60532 47.3326C5.71915 47.1391 5.79883 46.9456 5.84436 46.7521L7.79082 47.5375Z" fill="black"/>
<path d="M17.1315 41.9713C17.1315 42.9047 17.0291 43.7868 16.8242 44.6178C16.6307 45.4373 16.3689 46.1943 16.0387 46.8887C15.7086 47.5716 15.3216 48.1863 14.8777 48.7327C14.4452 49.2677 13.9898 49.7287 13.5118 50.1157C13.0337 50.4913 12.5499 50.7816 12.0605 50.9865C11.571 51.18 11.1043 51.2767 10.6604 51.2767C10.2847 51.2767 9.94324 51.2084 9.63591 51.0718C9.32857 50.9239 9.06108 50.7133 8.83342 50.4401C8.60576 50.1555 8.42364 49.797 8.28704 49.3644C8.16183 48.9205 8.09923 48.3912 8.09923 47.7765C8.09923 47.1391 8.17891 46.4675 8.33827 45.7618C8.49762 45.056 8.7139 44.356 8.98709 43.6616C9.26027 42.9673 9.59607 42.3071 9.99447 41.681C10.3929 41.055 10.8311 40.5029 11.3092 40.0248C11.7873 39.5353 12.2995 39.1483 12.8459 38.8638C13.3922 38.5792 13.9614 38.4369 14.5533 38.4369C15.0655 38.4369 15.4867 38.545 15.8168 38.7613C16.1583 38.9662 16.4201 39.2394 16.6022 39.5809C16.7957 39.911 16.9323 40.2866 17.012 40.7078C17.0917 41.1289 17.1315 41.5501 17.1315 41.9713ZM10.6433 47.3326C10.6433 47.4578 10.6661 47.5887 10.7116 47.7253C10.7571 47.8619 10.8197 47.9814 10.8994 48.0839C10.9791 48.1863 11.0758 48.2774 11.1897 48.357C11.3149 48.4253 11.4458 48.4595 11.5824 48.4595C12.0946 48.4595 12.5499 48.2831 12.9483 47.9302C13.3467 47.5773 13.6768 47.1448 13.9386 46.6325C14.2004 46.1203 14.3996 45.5739 14.5362 44.9934C14.6842 44.4129 14.7582 43.8836 14.7582 43.4055C14.7582 43.2689 14.7468 43.1209 14.724 42.9616C14.7126 42.8022 14.6785 42.6542 14.6216 42.5176C14.5761 42.3811 14.4964 42.2672 14.3825 42.1762C14.2801 42.0737 14.1378 42.0225 13.9557 42.0225C13.5914 42.0225 13.2556 42.1136 12.9483 42.2957C12.641 42.4778 12.3621 42.7225 12.1117 43.0299C11.8726 43.3258 11.6621 43.6673 11.4799 44.0543C11.2978 44.43 11.1384 44.817 11.0018 45.2154C10.8766 45.6024 10.7856 45.9837 10.7287 46.3594C10.6717 46.735 10.6433 47.0594 10.6433 47.3326Z" fill="black"/>
<path d="M15.4781 51.106C15.9789 49.5921 16.457 48.1066 16.9123 46.6496C17.1058 46.0349 17.305 45.3918 17.5099 44.7202C17.7148 44.0486 17.9197 43.3827 18.1246 42.7225C18.3295 42.0623 18.5173 41.4249 18.6881 40.8102C18.8702 40.1956 19.0295 39.6264 19.1661 39.1028C19.7922 39.1028 20.3841 39.0686 20.9419 39.0004C21.4996 38.9321 22.1029 38.8695 22.7517 38.8125C22.7176 39.063 22.6777 39.3475 22.6322 39.6662C22.5981 39.9736 22.5525 40.298 22.4956 40.6395C22.4501 40.981 22.3989 41.3338 22.3419 41.6981C22.285 42.0623 22.2167 42.529 22.1371 43.0982C22.0574 43.6673 21.9492 44.3787 21.8126 45.2325H22.0346C22.3647 44.3674 22.6379 43.6502 22.8542 43.0811C23.0704 42.5006 23.2469 42.0282 23.3835 41.6639C23.5201 41.2997 23.6567 40.9468 23.7933 40.6053C23.9412 40.2525 24.0778 39.9224 24.203 39.615C24.3396 39.2963 24.4648 39.0174 24.5787 38.7784C24.8632 38.7556 25.1307 38.7272 25.3812 38.693C25.6316 38.6589 25.882 38.6247 26.1324 38.5906C26.3829 38.545 26.6333 38.5052 26.8837 38.4711C27.1455 38.4255 27.4301 38.3743 27.7374 38.3174C27.6236 38.9776 27.5154 39.6549 27.413 40.3492C27.3106 41.0436 27.2195 41.7379 27.1398 42.4323C27.0601 43.1152 26.9804 43.7925 26.9008 44.4641C26.8325 45.1357 26.7699 45.7731 26.713 46.3764C26.5764 47.7879 26.4568 49.1652 26.3544 50.5084L23.3835 51.0377C23.3835 50.9808 23.3892 50.8271 23.4006 50.5767C23.4233 50.3263 23.4461 50.0189 23.4688 49.6547C23.503 49.2904 23.5428 48.8863 23.5884 48.4424C23.6453 47.9985 23.6965 47.5545 23.742 47.1106C23.7989 46.6667 23.8559 46.2398 23.9128 45.83C23.9697 45.4089 24.0266 45.0503 24.0835 44.7544H23.9299C23.7705 45.2325 23.5941 45.739 23.4006 46.274C23.207 46.7976 23.0078 47.3326 22.8029 47.879C22.6094 48.4253 22.4159 48.9603 22.2224 49.4839C22.0289 50.0075 21.8582 50.5084 21.7102 50.9865C21.3118 50.9979 20.9703 51.0149 20.6857 51.0377C20.4012 51.0491 20.0711 51.0662 19.6954 51.0889L20.2418 44.7544H19.9857C19.9629 44.9023 19.906 45.1528 19.815 45.5056C19.7239 45.8471 19.6158 46.2455 19.4905 46.7008C19.3767 47.1448 19.2515 47.6115 19.1149 48.1009C18.9783 48.579 18.8474 49.0286 18.7222 49.4498C18.6084 49.8596 18.5116 50.2011 18.4319 50.4742C18.3523 50.7361 18.3067 50.884 18.2954 50.9182L15.4781 51.106Z" fill="black"/>
<path d="M29.4643 50.867C29.3619 50.867 29.157 50.884 28.8496 50.9182C28.5537 50.9409 28.2463 50.9751 27.9276 51.0206C27.6089 51.0548 27.3186 51.0889 27.0568 51.1231C26.8064 51.1572 26.6698 51.18 26.6471 51.1914C26.7609 50.7019 26.8747 50.1612 26.9885 49.5693C27.1138 48.966 27.239 48.34 27.3642 47.6911C27.4894 47.0309 27.6089 46.365 27.7227 45.6935C27.8366 45.0219 27.9447 44.373 28.0471 43.747C28.2862 42.29 28.5252 40.7931 28.7643 39.2565L31.4278 38.8296C31.166 40.3549 30.9099 41.8518 30.6595 43.3201C30.5571 43.9462 30.4489 44.595 30.3351 45.2666C30.2326 45.9382 30.1245 46.6041 30.0107 47.2643C29.9082 47.9245 29.8115 48.5676 29.7204 49.1937C29.6294 49.8083 29.544 50.3661 29.4643 50.867Z" fill="black"/>
<path d="M37.3039 47.5375C37.0307 48.1635 36.7234 48.7099 36.3819 49.1766C36.0518 49.6319 35.6989 50.0189 35.3233 50.3377C34.9591 50.645 34.5891 50.8726 34.2135 51.0206C33.8378 51.1686 33.4736 51.2426 33.1207 51.2426C32.7679 51.2426 32.4435 51.1629 32.1475 51.0035C31.8629 50.8442 31.6125 50.6051 31.3962 50.2864C31.18 49.9677 31.0035 49.575 30.8669 49.1083C30.7417 48.6416 30.6791 48.0952 30.6791 47.4692C30.6791 46.3992 30.8271 45.3463 31.123 44.3104C31.419 43.2632 31.8345 42.3241 32.3695 41.4932C32.9045 40.6622 33.5362 39.9964 34.2647 39.4955C35.0046 38.9833 35.8185 38.7272 36.7063 38.7272C36.9795 38.7272 37.2413 38.7841 37.4917 38.8979C37.7422 39.0117 37.9584 39.1711 38.1406 39.376C38.3227 39.5809 38.465 39.8313 38.5674 40.1273C38.6812 40.4232 38.7382 40.7533 38.7382 41.1176C38.7382 41.1859 38.7382 41.2598 38.7382 41.3395C38.7382 41.4078 38.7325 41.4818 38.7211 41.5615L36.4844 42.1591C36.3478 41.8745 36.1884 41.7322 36.0063 41.7322C35.8242 41.7322 35.6306 41.8404 35.4258 42.0566C35.2322 42.2615 35.0387 42.5347 34.8452 42.8762C34.6517 43.2063 34.4639 43.5819 34.2818 44.0031C34.0997 44.4129 33.9403 44.8284 33.8037 45.2495C33.6671 45.6707 33.5533 46.0748 33.4622 46.4618C33.3825 46.8374 33.3427 47.1448 33.3427 47.3838C33.3427 47.7481 33.3882 48.0042 33.4793 48.1521C33.5817 48.3001 33.7126 48.3741 33.872 48.3741C33.9972 48.3741 34.1395 48.3286 34.2989 48.2375C34.4582 48.1351 34.6062 48.0099 34.7428 47.8619C34.8794 47.7025 35.0046 47.5261 35.1184 47.3326C35.2322 47.1391 35.3119 46.9456 35.3575 46.7521L37.3039 47.5375Z" fill="black"/>
<path d="M47.9817 46.9911C47.9817 47.6285 47.8565 48.2091 47.6061 48.7327C47.3671 49.2449 47.0369 49.6888 46.6158 50.0645C46.206 50.4401 45.7165 50.7304 45.1474 50.9352C44.5896 51.1401 43.9864 51.2426 43.3375 51.2426C42.8822 51.2426 42.4269 51.1231 41.9716 50.884C41.5163 50.6336 41.078 50.2409 40.6569 49.7059L41.9204 47.2301C42 47.3781 42.1196 47.5318 42.2789 47.6911C42.4383 47.8391 42.6147 47.97 42.8082 48.0839C43.0131 48.1977 43.2123 48.2944 43.4058 48.3741C43.6107 48.4424 43.7928 48.4766 43.9522 48.4766C44.0888 48.4766 44.2311 48.4538 44.3791 48.4083C44.527 48.3627 44.6636 48.2944 44.7888 48.2034C44.9141 48.1123 45.0108 48.0099 45.0791 47.896C45.1588 47.7708 45.1986 47.6285 45.1986 47.4692C45.1986 47.196 45.1076 46.9456 44.9254 46.7179C44.7547 46.4789 44.5384 46.2569 44.2766 46.052C44.0148 45.8357 43.7302 45.6195 43.4229 45.4032C43.1156 45.1869 42.831 44.9593 42.5692 44.7202C42.3188 44.4812 42.1025 44.2137 41.9204 43.9177C41.7382 43.6218 41.6472 43.2917 41.6472 42.9274C41.6472 42.3355 41.8236 41.7835 42.1765 41.2712C42.5293 40.759 42.9676 40.3208 43.4912 39.9565C44.0262 39.5809 44.6067 39.2849 45.2328 39.0687C45.8588 38.8524 46.4507 38.7442 47.0085 38.7442C47.3158 38.7442 47.6061 38.7841 47.8793 38.8638C48.1525 38.9321 48.3858 39.0516 48.5793 39.2223C48.7842 39.3817 48.9436 39.5866 49.0574 39.837C49.1826 40.0874 49.2452 40.4004 49.2452 40.7761C49.2452 40.9354 49.2281 41.0948 49.194 41.2542C49.1712 41.4135 49.1485 41.5843 49.1257 41.7664L46.6499 42.4835C46.6727 42.3924 46.6898 42.3014 46.7012 42.2103C46.7239 42.1192 46.7353 42.0282 46.7353 41.9371C46.7353 41.5956 46.6727 41.3509 46.5475 41.2029C46.4337 41.0436 46.28 40.9639 46.0865 40.9639C45.9954 40.9639 45.8816 40.998 45.745 41.0663C45.6198 41.1346 45.4889 41.2257 45.3523 41.3395C45.2271 41.442 45.1189 41.5672 45.0279 41.7152C44.9368 41.8631 44.8913 42.0225 44.8913 42.1932C44.8913 42.4664 44.9653 42.6941 45.1133 42.8762C45.2726 43.0583 45.4661 43.2291 45.6938 43.3884C45.9214 43.5478 46.1662 43.7128 46.428 43.8836C46.7012 44.0429 46.9516 44.2535 47.1792 44.5153C47.4069 44.7771 47.5947 45.1072 47.7427 45.5056C47.902 45.8927 47.9817 46.3878 47.9817 46.9911Z" fill="black"/>
<path d="M54.0377 50.867C53.7532 50.9125 53.4401 50.9637 53.0987 51.0206C52.7572 51.0775 52.4498 51.1288 52.1767 51.1743C52.2222 50.7987 52.2677 50.4287 52.3132 50.0645C52.3474 49.7457 52.3759 49.427 52.3986 49.1083C52.4328 48.7896 52.4612 48.5164 52.484 48.2887H50.9985L50.3156 50.7474C50.0651 50.7816 49.7692 50.8214 49.4277 50.867C49.0862 50.9011 48.7675 50.9352 48.4715 50.9694C48.1073 51.0149 47.7487 51.0605 47.3959 51.106C47.8512 49.5921 48.3008 48.1009 48.7447 46.6325C48.9269 46.0179 49.1147 45.3747 49.3082 44.7032C49.5131 44.0316 49.7123 43.3657 49.9058 42.7055C50.1107 42.0339 50.3042 41.3907 50.4863 40.7761C50.6684 40.1614 50.8278 39.598 50.9644 39.0857C51.7384 39.0288 52.5238 38.9605 53.3206 38.8808C54.1288 38.8012 54.9142 38.693 55.6769 38.5564C55.6427 38.9207 55.6029 39.376 55.5574 39.9224C55.5232 40.4574 55.4891 41.0436 55.4549 41.681C55.4208 42.3184 55.3866 42.9843 55.3525 43.6787C55.3183 44.373 55.2842 45.056 55.25 45.7276C55.1931 47.2984 55.1305 48.966 55.0622 50.7304C54.7207 50.7873 54.3792 50.8328 54.0377 50.867ZM51.4083 46.5813C51.4538 46.5813 51.5335 46.5813 51.6474 46.5813C51.7726 46.5699 51.8978 46.5642 52.023 46.5642C52.1596 46.5529 52.2848 46.5472 52.3986 46.5472C52.5124 46.5358 52.5921 46.5244 52.6377 46.513C52.6377 46.4447 52.6433 46.3309 52.6547 46.1715C52.6775 46.0008 52.6946 45.813 52.706 45.6081C52.7287 45.3918 52.7515 45.1585 52.7743 44.908C52.797 44.6576 52.8198 44.4129 52.8425 44.1738C52.8881 43.5933 52.945 42.9673 53.0133 42.2957L53.1157 40.8102L52.8596 40.8273L52.4669 42.2957L51.4083 46.5813Z" fill="black"/>
<path d="M59.8535 50.6621C59.5007 50.6621 59.125 50.6734 58.7266 50.6962C58.3396 50.719 57.9469 50.7531 57.5485 50.7987C57.1501 50.8442 56.7574 50.9068 56.3704 50.9865C55.9947 51.0548 55.6533 51.1401 55.3459 51.2426C55.4142 50.7304 55.4939 50.1612 55.585 49.5352C55.676 48.9091 55.7785 48.2603 55.8923 47.5887C56.0175 46.9171 56.137 46.2398 56.2509 45.5569C56.3761 44.8739 56.5013 44.2194 56.6265 43.5933C56.9111 42.1022 57.2127 40.5826 57.5314 39.0345L60.5194 38.6418C60.2121 39.9622 59.9161 41.2485 59.6316 42.5006C59.5063 43.0356 59.3811 43.5933 59.2559 44.1738C59.1307 44.743 59.0112 45.3007 58.8974 45.8471C58.7835 46.3935 58.6811 46.9228 58.59 47.435C58.499 47.9473 58.425 48.4026 58.3681 48.801C58.6526 48.7782 58.9543 48.7668 59.273 48.7668C59.6031 48.7554 59.8934 48.7497 60.1438 48.7497C60.1552 48.966 60.1722 49.1823 60.195 49.3986C60.2178 49.6035 60.2405 49.7913 60.2633 49.962C60.2975 50.1328 60.3202 50.2864 60.3316 50.423C60.3544 50.5482 60.3714 50.6336 60.3828 50.6791C60.2918 50.6791 60.2007 50.6791 60.1096 50.6791C60.03 50.6678 59.9446 50.6621 59.8535 50.6621Z" fill="black"/>
<path d="M60.4299 51.2255L62.6666 39.0857L68.0621 38.6247C67.9824 38.8751 67.9141 39.1313 67.8572 39.3931C67.8003 39.6093 67.7434 39.837 67.6865 40.076C67.6409 40.3037 67.6011 40.5086 67.5669 40.6907C67.4531 40.7021 67.2881 40.7135 67.0718 40.7249C66.8669 40.7249 66.6449 40.7305 66.4059 40.7419C66.1669 40.7419 65.9221 40.7419 65.6717 40.7419C65.4327 40.7419 65.2221 40.7419 65.04 40.7419L64.4424 43.7982C64.7952 43.7754 65.1253 43.7584 65.4327 43.747C65.6831 43.7356 65.9392 43.7299 66.201 43.7299C66.4628 43.7299 66.6563 43.7242 66.7815 43.7128C66.736 44.0316 66.6905 44.3446 66.6449 44.6519C66.6108 44.9593 66.5653 45.2723 66.5083 45.591C66.3945 45.6024 66.2067 45.6138 65.9449 45.6252C65.6945 45.6252 65.4384 45.6309 65.1766 45.6422C64.8806 45.6536 64.5562 45.665 64.2033 45.6764L63.6228 48.818L66.1156 48.4253L65.9449 50.3718L60.4299 51.2255Z" fill="black"/>
<path d="M73.6765 46.9911C73.6765 47.6285 73.5512 48.2091 73.3008 48.7327C73.0618 49.2449 72.7317 49.6888 72.3105 50.0645C71.9007 50.4401 71.4113 50.7304 70.8421 50.9352C70.2844 51.1401 69.6811 51.2426 69.0323 51.2426C68.577 51.2426 68.1216 51.1231 67.6663 50.884C67.211 50.6336 66.7728 50.2409 66.3516 49.7059L67.6151 47.2301C67.6948 47.3781 67.8143 47.5318 67.9737 47.6911C68.133 47.8391 68.3095 47.97 68.503 48.0839C68.7079 48.1977 68.9071 48.2944 69.1006 48.3741C69.3055 48.4424 69.4876 48.4766 69.6469 48.4766C69.7835 48.4766 69.9258 48.4538 70.0738 48.4083C70.2218 48.3627 70.3584 48.2944 70.4836 48.2034C70.6088 48.1123 70.7055 48.0099 70.7738 47.896C70.8535 47.7708 70.8934 47.6285 70.8934 47.4692C70.8934 47.196 70.8023 46.9456 70.6202 46.7179C70.4494 46.4789 70.2332 46.2569 69.9714 46.052C69.7095 45.8357 69.425 45.6195 69.1176 45.4032C68.8103 45.1869 68.5257 44.9593 68.2639 44.7202C68.0135 44.4812 67.7972 44.2137 67.6151 43.9177C67.433 43.6218 67.3419 43.2917 67.3419 42.9274C67.3419 42.3355 67.5183 41.7835 67.8712 41.2712C68.2241 40.759 68.6623 40.3208 69.1859 39.9565C69.7209 39.5809 70.3015 39.2849 70.9275 39.0687C71.5536 38.8524 72.1455 38.7442 72.7032 38.7442C73.0106 38.7442 73.3008 38.7841 73.574 38.8638C73.8472 38.9321 74.0806 39.0516 74.2741 39.2223C74.479 39.3817 74.6383 39.5866 74.7521 39.837C74.8773 40.0874 74.94 40.4004 74.94 40.7761C74.94 40.9354 74.9229 41.0948 74.8887 41.2542C74.866 41.4135 74.8432 41.5843 74.8204 41.7664L72.3447 42.4835C72.3674 42.3924 72.3845 42.3014 72.3959 42.2103C72.4187 42.1192 72.43 42.0282 72.43 41.9371C72.43 41.5956 72.3674 41.3509 72.2422 41.2029C72.1284 41.0436 71.9747 40.9639 71.7812 40.9639C71.6902 40.9639 71.5763 40.998 71.4397 41.0663C71.3145 41.1346 71.1836 41.2257 71.047 41.3395C70.9218 41.442 70.8137 41.5672 70.7226 41.7152C70.6316 41.8631 70.586 42.0225 70.586 42.1932C70.586 42.4664 70.66 42.6941 70.808 42.8762C70.9673 43.0583 71.1609 43.2291 71.3885 43.3884C71.6162 43.5478 71.8609 43.7128 72.1227 43.8836C72.3959 44.0429 72.6463 44.2535 72.874 44.5153C73.1016 44.7771 73.2894 45.1072 73.4374 45.5056C73.5968 45.8927 73.6765 46.3878 73.6765 46.9911Z" fill="black"/>
<path fill-rule="evenodd" clip-rule="evenodd" d="M75.5 0.62793H0.5V34.3178H75.5V0.62793ZM62.2417 5.44403V9.82776H58.4345V15.2598H62.2419V19.6503H58.4345V25.165H62.2419V29.4896H54.2209V7.69407L50.841 29.4896L45.8945 29.5049C45.8945 29.5049 43.3716 14.0697 43.3668 14.0359V14.0376C43.7746 16.5308 42.2422 19.1371 40.8851 20.1634L43.5631 29.4896H43.5581H43.5507L43.5524 29.4946H43.5475H39.3984H39.3934L37.3526 21.5375L36.3669 21.6843V29.4896H36.3619H36.3569V29.4946H36.3503L28.3095 29.4896L27.8142 25.7895H24.5168L24.0198 29.4896H15.8296V17.8998L13.9242 29.4896H11.6656L9.73313 17.8998V29.4898H5.48473V5.4441H10.8797L12.7735 17.8676L14.7177 5.44396H20.1109L20.1092 27.5586L23.3537 5.44076L28.9888 5.4441L32.125 26.7906L32.1415 5.4441C32.1415 5.4441 36.4245 5.44239 36.4501 5.4441C40.3269 5.4441 42.0885 8.35081 42.5855 9.35191L42.1034 5.4441H46.4062L48.3479 20.0892L50.3101 5.44403H62.2417ZM26.1837 11.6965L25.0172 21.9764H27.3948L26.1837 11.6965ZM36.3667 17.4729C36.6986 17.4729 37.0395 17.3918 37.3664 17.2297C38.357 16.7386 39.2007 15.5113 39.2007 13.5634C39.2007 9.83965 36.7201 9.73504 36.3874 9.73675C36.3829 9.73675 36.3789 9.73721 36.3752 9.73763C36.3722 9.73799 36.3693 9.73831 36.3667 9.73831V17.4729ZM70.8018 29.4862V25.1616H67.1901V5.44076H62.9772V29.4862H70.8018Z" fill="#DC042B"/>
</svg>
